<svg width="40" height="34" viewBox="0 0 40 34" fill="none" xmlns="http://www.w3.org/2000/svg">
<g clip-path="url(#clip0_2_7)">
<rect width="40" height="34" fill="white"/>
<path d="M33.3817 18.5539C33.2856 18.5055 33.1894 18.4813 33.0924 18.4813C32.8837 18.4813 32.6998 18.5614 32.5395 18.722L31 20.2613C30.8561 20.4058 30.7838 20.5819 30.7838 20.7906V26.8997C30.7838 27.9583 30.4078 28.8639 29.6536 29.6179C28.9 30.3715 27.9938 30.7483 26.9354 30.7483H6.92284C5.86434 30.7483 4.95825 30.3715 4.20465 29.6179C3.45087 28.864 3.0742 27.9584 3.0742 26.8997L3.0742 6.88761C3.0742 5.82929 3.45087 4.92328 4.20465 4.16943C4.95825 3.41574 5.86434 3.03898 6.92284 3.03898L26.9356 3.03898C27.2884 3.03898 27.6491 3.08709 28.0179 3.18338C28.1142 3.21523 28.1863 3.23149 28.2338 3.23149C28.4426 3.23149 28.6271 3.15154 28.7873 2.99121L29.966 1.81258C30.1582 1.62041 30.2307 1.38771 30.1822 1.11534C30.1341 0.858719 29.9896 0.674216 29.749 0.562081C28.8836 0.161733 27.9451 -0.0393677 26.9349 -0.0393677L6.92284 -0.0393677C5.01461 -0.0393677 3.38289 0.638157 2.02783 1.99321C0.672949 3.34843 -0.00457764 4.97989 -0.00457764 6.8882L-0.00457764 26.9008C-0.00457764 28.8088 0.672949 30.4404 2.02792 31.7955C3.38297 33.1508 5.01469 33.8284 6.92292 33.8284H26.9354C28.8434 33.8284 30.4753 33.1508 31.8303 31.7955C33.1855 30.4404 33.8636 28.8089 33.8636 26.9008V19.2513C33.8634 18.9148 33.7022 18.6825 33.3817 18.5539Z" fill="#333333"/>
<path d="M39.4195 4.74721L36.7733 2.10105C36.3885 1.71629 35.9312 1.52386 35.4019 1.52386C34.8732 1.52386 34.4156 1.71629 34.0311 2.10105L18.4682 17.6638L12.1424 11.3377C11.7575 10.9527 11.3004 10.7605 10.7714 10.7605C10.2423 10.7605 9.78534 10.9527 9.40033 11.3377L6.7545 13.9835C6.36965 14.3684 6.17706 14.8255 6.17706 15.3548C6.17706 15.8839 6.36965 16.3409 6.7545 16.7259L17.0974 27.0688C17.4824 27.4539 17.9395 27.646 18.4685 27.646C18.9975 27.646 19.4545 27.454 19.8396 27.0688L39.4193 7.48924C39.8038 7.10447 39.9967 6.64726 39.9967 6.11818C39.9967 5.5891 39.8044 5.13197 39.4195 4.74721Z" fill="#333333"/>
</g>
<defs>
<clipPath id="clip0_2_7">
<rect width="40" height="34" fill="white"/>
</clipPath>
</defs>
</svg>
